Coordinates
nRows=258
nColumns=2
inDegrees=yes
endheader
time	ankle_angle_r	
2.49496	 -0.366211	
2.52823	 -0.363949	
2.56149	 -0.396729	
2.59476	 -0.310086	
2.62802	 -0.320435	
2.66129	 -0.399377	
2.69456	 -0.305176	
2.72782	 -0.302334	
2.76109	 -0.338632	
2.79435	 -0.265470	
2.82762	 -0.350952	
2.86089	 -0.350952	
2.89415	 -0.305176	
2.92742	 -0.339115	
2.96069	 -0.354471	
2.99395	 -0.308791	
3.02722	 -0.335693	
3.06048	 -0.366211	
3.09375	 -0.331788	
3.12702	 -0.316432	
3.16028	 -0.328632	
3.19355	 -0.274658	
3.22681	 -0.283243	
3.26008	 -0.366211	
3.29335	 -0.341981	
3.32661	 -0.315852	
3.35988	 -0.381470	
3.39315	 -0.305176	
3.42641	 -0.289917	
3.45968	 -0.366211	
3.49294	 -0.305176	
3.52621	 -0.325597	
3.55948	 -0.340952	
3.59274	 -0.315079	
3.62601	 -0.280111	
3.65927	 -0.381470	
3.69254	 -0.309143	
3.72581	 -0.305176	
3.75907	 -0.369791	
3.79234	 -0.354339	
3.8256	 -0.311208	
3.85887	 -0.369211	
3.89214	 -0.350952	
3.9254	 -0.323048	
3.95867	 -0.322855	
3.99194	 -0.357468	
4.0252	 -0.322468	
4.05847	 -0.390019	
4.09173	 -0.334047	
4.125	 -0.312079	
4.15827	 -0.373210	
4.19153	 -0.350952	
4.2248	 -0.359018	
4.25806	 -0.396729	
4.29133	 -0.328793	
4.3246	 -0.374573	
4.35786	 -0.343373	
4.39113	 -0.335693	
4.4244	 -0.366211	
4.45766	 -0.350952	
4.49093	 -0.350952	
4.52419	 -0.374274	
4.55746	 -0.381470	
4.59073	 -0.357955	
4.62399	 -0.388375	
4.65726	 -0.427246	
4.69052	 -0.401607	
4.72379	 -0.405372	
4.75706	 -0.409766	
4.79032	 -0.403151	
4.82359	 -0.436179	
4.85685	 -0.418216	
4.89012	 -0.411987	
4.92339	 -0.451728	
4.95665	 -0.445886	
4.98992	 -0.385044	
5.02319	 -0.442505	
5.05645	 -0.432895	
5.08972	 -0.417539	
5.12298	 -0.422898	
5.15625	 -0.427246	
5.18952	 -0.406725	
5.22278	 -0.432411	
5.25605	 -0.457764	
5.28931	 -0.407015	
5.32258	 -0.432754	
5.35585	 -0.437726	
5.38911	 -0.416669	
5.42238	 -0.442505	
5.45565	 -0.431735	
5.48891	 -0.411987	
5.52218	 -0.442505	
5.55544	 -0.420384	
5.58871	 -0.404932	
5.62198	 -0.427246	
5.65524	 -0.442505	
5.68851	 -0.408176	
5.72177	 -0.427246	
5.75504	 -0.442505	
5.78831	 -0.404944	
5.82157	 -0.442505	
5.85484	 -0.451107	
5.8881	 -0.399960	
5.92137	 -0.415122	
5.95464	 -0.442505	
5.9879	 -0.424304	
6.02117	 -0.414832	
6.05444	 -0.439757	
6.0877	 -0.386773	
6.12097	 -0.414542	
6.15423	 -0.424788	
6.1875	 -0.366211	
6.22077	 -0.411987	
6.25403	 -0.335693	
6.2873	 -0.335693	
6.32056	 -0.394754	
6.35383	 -0.366211	
6.3871	 -0.333912	
6.42036	 -0.364526	
6.45363	 -0.335693	
6.4869	 -0.315961	
6.52016	 -0.364816	
6.55343	 -0.395431	
6.58669	 -0.319233	
6.61996	 -0.382574	
6.65323	 -0.305176	
6.68649	 -0.349130	
6.71976	 -0.304361	
6.75302	 -0.334976	
6.78629	 -0.291159	
6.81956	 -0.366735	
6.85282	 -0.320435	
6.88609	 -0.320103	
6.91935	 -0.320669	
6.95262	 -0.320435	
6.98589	 -0.335734	
7.01915	 -0.320546	
7.05242	 -0.289917	
7.08569	 -0.320435	
7.11895	 -0.350606	
7.15222	 -0.289917	
7.18548	 -0.351491	
7.21875	 -0.395457	
7.25202	 -0.322632	
7.28528	 -0.351781	
7.31855	 -0.336619	
7.35181	 -0.320435	
7.38508	 -0.334574	
7.41835	 -0.336909	
7.45161	 -0.334381	
7.48488	 -0.334284	
7.51815	 -0.350952	
7.55141	 -0.332488	
7.58468	 -0.278057	
7.61794	 -0.349156	
7.65121	 -0.337586	
7.68448	 -0.348963	
7.71774	 -0.368297	
7.75101	 -0.350952	
7.78427	 -0.312014	
7.81754	 -0.414363	
7.85081	 -0.378997	
7.88407	 -0.356091	
7.91734	 -0.411987	
7.9506	 -0.363448	
7.98387	 -0.369071	
8.01714	 -0.396729	
8.0504	 -0.384523	
8.08367	 -0.378320	
8.11694	 -0.411987	
8.1502	 -0.378127	
8.18347	 -0.378030	
8.21673	 -0.430782	
8.25	 -0.393095	
8.28327	 -0.362481	
8.31653	 -0.415814	
8.3498	 -0.381470	
8.38306	 -0.396729	
8.41633	 -0.404961	
8.4496	 -0.385683	
8.48286	 -0.377160	
8.51613	 -0.396729	
8.5494	 -0.385973	
8.58266	 -0.392129	
8.61593	 -0.422550	
8.64919	 -0.397607	
8.68246	 -0.386949	
8.71573	 -0.416974	
8.74899	 -0.366211	
8.78226	 -0.416886	
8.81552	 -0.402005	
8.84879	 -0.396729	
8.88206	 -0.391258	
8.91532	 -0.381470	
8.94859	 -0.391065	
8.98185	 -0.339432	
9.01512	 -0.377925	
9.04839	 -0.335693	
9.08165	 -0.390678	
9.11492	 -0.357099	
9.14819	 -0.305176	
9.18145	 -0.375129	
9.21472	 -0.357389	
9.24798	 -0.329160	
9.28125	 -0.374839	
9.31452	 -0.359484	
9.34778	 -0.311999	
9.38105	 -0.350952	
9.41431	 -0.359194	
9.44758	 -0.359097	
9.48085	 -0.375097	
9.51411	 -0.381470	
9.54738	 -0.343548	
9.58065	 -0.404487	
9.61391	 -0.366211	
9.64718	 -0.366211	
9.68044	 -0.396406	
9.71371	 -0.374098	
9.74698	 -0.381470	
9.78024	 -0.388648	
9.81351	 -0.404906	
9.84677	 -0.381470	
9.88004	 -0.366211	
9.91331	 -0.418779	
9.94657	 -0.381470	
9.97984	 -0.442505	
10.0131	 -0.433748	
10.0464	 -0.383919	
10.0796	 -0.436197	
10.1129	 -0.409151	
10.1462	 -0.396729	
10.1794	 -0.424023	
10.2127	 -0.427246	
10.246	 -0.381470	
10.2792	 -0.427246	
10.3125	 -0.463395	
10.3458	 -0.407798	
10.379	 -0.442505	
10.4123	 -0.437928	
10.4456	 -0.406743	
10.4788	 -0.432394	
10.5121	 -0.437454	
10.5454	 -0.421896	
10.5786	 -0.416845	
10.6119	 -0.447266	
10.6452	 -0.381470	
10.6784	 -0.437937	
10.7117	 -0.422775	
10.745	 -0.374960	
10.7782	 -0.411987	
10.8115	 -0.407806	
10.8448	 -0.411987	
10.878	 -0.404704	
10.9113	 -0.373688	
10.9446	 -0.354746	
10.9778	 -0.385167	
11.0111	 -0.377869	
11.0444	 -0.381470	
